<svg id="verticals" xmlns="http://www.w3.org/2000/svg" viewBox="0 0 618 609.74">
	<style>
		.cls-1{isolation:isolate;}.cls-2{fill:#f9a51a;}.cls-3{fill:#ffcd44;}.cls-4{fill:#f6dd52;}.cls-5{fill:#e6e7e8;}.cls-6{fill:#fff;}.cls-7{fill:#f1f2f2;}.cls-8{fill:#bcbec0;}.cls-9{fill:#059bbf;}.cls-10{fill:#df2c2c;}.cls-11{fill:#fa5655;}.cls-12{fill:#f0f1f1;}.cls-13{fill:#3e3e3f;}.cls-14{fill:#5b5c5f;}.cls-15{fill:#facb1b;}.cls-16{fill:#f3b607;}.cls-17{fill:#f79392;}.cls-18{fill:#fbe158;}.cls-19{fill:#fcf6c2;}.cls-20{fill:#6d6e71;}.cls-21{fill:#d1d3d4;}
	</style>
	
	<title>HTML5_IndustryVerticals_names</title>
	<g id="floor">
		<g class="cls-1">
			<polygon class="cls-2" points="618 421.84 617.97 430.76 309.99 609.74 310.02 600.82 618 421.84"/>
			<polygon class="cls-3" points="310.02 600.82 309.99 609.74 0 430.77 0.03 421.84 310.02 600.82"/>
			<polygon class="cls-4" points="618 421.84 310.02 600.82 0.03 421.84 308 242.86 618 421.84"/>
		</g>
	</g>
	<g id="devices">
		<g id="desktop">
				<g id="desktop_body">
					<g class="cls-1">
						<polygon class="cls-5" points="58.21 413.56 53.98 411.11 53.32 176.68 57.54 179.14 58.21 413.56"/>
						<polygon class="cls-6" points="57.54 179.14 53.32 176.68 359.34 0 363.56 2.45 57.54 179.14"/>
					</g>
						<path class="cls-7" d="M363.33,8.84,57.3,185.52,58,420l100.76-58.17,104.5-60.33L364,243.27Zm-299,400.6L63.7,189.17,357,19.85l.62,220.27L64.32,409.44" transform="translate(0.18 -6.38)"/>
					<g class="cls-1">
						<polygon class="cls-5" points="163.83 425.55 121.6 401.01 121.58 392.22 163.8 416.76 163.83 425.55"/>
						<polygon class="cls-6" points="163.8 416.76 121.58 392.22 272.89 304.86 315.12 329.4 163.8 416.76"/>
						<polygon class="cls-7" points="315.12 329.4 315.14 338.19 163.83 425.55 163.8 416.76 315.12 329.4"/>
					</g>
					<g class="cls-1">
						<polygon class="cls-6" points="163.95 392.73 159.73 390.27 159.4 273.06 163.62 275.51 163.95 392.73"/>
						<polygon class="cls-8" points="163.62 275.51 159.4 273.06 263.9 212.72 268.12 215.18 163.62 275.51"/>
						<polygon class="cls-7" points="268.12 215.18 268.45 332.39 163.95 392.73 163.62 275.51 268.12 215.18"/>
					</g>
				</g>
					<polygon id="banner_3" class="cls-9" points="285.52 127.22 340.78 95.32 340.9 139.27 285.65 171.18 285.52 127.22"/>
				<g class="cls-1">
					<path class="cls-10" d="M322.81,134.55c1.81-1,3.28-.21,3.29,1.87l0,12.53a2.4,2.4,0,0,1-1.09,1.88L312,158.39v-3.76l9.81-5.67,0-10-9.81,5.67v-3.76Z" transform="translate(0.18 -6.38)"/>
					<path class="cls-10" d="M324.09,116.92c1.5-.87,2.86-.45,3.2,1.11l5.18,24c.39,1.81-.72,4.46-2.49,5.92a2.11,2.11,0,0,1-.27.19c-.48.28-.91.14-1-.36l-6.13-28.45a2.2,2.2,0,0,1,.79-1.89A5.59,5.59,0,0,1,324.09,116.92Z" transform="translate(0.18 -6.38)"/>
					<polygon class="cls-6" points="321.9 132.55 321.93 142.58 312.12 148.25 302.31 153.91 302.28 143.88 312.09 138.22 321.9 132.55"/>
					<path class="cls-11" d="M311.9,140.85v3.76l-9.81,5.67,0,10,9.81-5.67v3.76l-13.08,7.55c-.61.35-1.09.07-1.1-.62l0-12.53a6.22,6.22,0,0,1,.61-2.55,7.87,7.87,0,0,1,1.16-1.82,6.17,6.17,0,0,1,1.26-1.13l.07,0,.08,0,.08,0Z" transform="translate(0.18 -6.38)"/>
					<path class="cls-10" d="M299.51,148.42a7.87,7.87,0,0,0-1.16,1.82A7.72,7.72,0,0,1,299.51,148.42Z" transform="translate(0.18 -6.38)"/>
					<path class="cls-12" d="M312.41,125.49c3.27-1.89,10.37-.34,7.12,5.94l-7.64,4.41,0-7.49A5.55,5.55,0,0,0,312.41,125.49Z" transform="translate(0.18 -6.38)"/>
					<path class="cls-13" d="M320.61,130.8c.61-.35,1.09-.07,1.1.62v3.76l-19.63,11.33v0l9.81-5.67v-5Z" transform="translate(0.18 -6.38)"/>
					<path class="cls-14" d="M311.89,135.84v5l-9.81,5.67v-3.76a2.4,2.4,0,0,1,1.09-1.88Z" transform="translate(0.18 -6.38)"/>
					<path class="cls-6" d="M311.87,128.34l0,7.49-7.63,4.41s-.55.32-.55-.94t0-.07V139c0-.06,0-.11,0-.16l0-.08c.32-1.12,1.54-2.48,3-4a38.9,38.9,0,0,0,4.21-4.86l.07-.1,0-.07A10.55,10.55,0,0,0,311.87,128.34Z" transform="translate(0.18 -6.38)"/>
				</g>
						<path class="cls-12" d="M306.76,134.79a39.12,39.12,0,0,0,4.21-4.86A38.9,38.9,0,0,1,306.76,134.79Z" transform="translate(0.18 -6.38)"/>
						<polygon id="banner_2" class="cls-9" points="125.23 200.19 125.15 172.84 272.64 87.69 272.72 115.04 125.23 200.19"/>
						<polygon class="cls-15" points="159.24 166.66 159.25 167.96 156.02 169.82 156.01 168.53 156.85 168.04 159.24 166.66"/>
						<polygon class="cls-16" points="162.75 164.64 162.76 165.93 159.25 167.96 159.24 166.66 161.91 165.12 162.75 164.64"/>
						<path class="cls-11" d="M159,165.47v5l-2.1,1.21v-4.36a.24.24,0,0,0,.08.14l0,0c.07,0,.18,0,.32-.05A7,7,0,0,0,159,165.47Z" transform="translate(0.18 -6.38)"/>
						<path class="cls-17" d="M160.72,160.61c.13-.08.24-.1.31-.05.35.2-.15,1.71-1.12,3.47l0,0-.07.13,0,0-.09.16a9.87,9.87,0,0,1-2.35,3c-.13.08-.24.1-.31.06l0,0a.24.24,0,0,1-.08-.14c-.11-.5.46-2,1.42-3.68A9.89,9.89,0,0,1,160.72,160.61Z" transform="translate(0.18 -6.38)"/>
				<g class="cls-1">
					<polygon class="cls-15" points="161.9 162.54 161.91 165.12 159.24 166.66 159.24 164.08 161.34 162.87 161.9 162.54"/>
					<path class="cls-13" d="M163.14,172l0,6.45a2.45,2.45,0,0,1-1.11,1.93l-5.61,3.24c-.62.36-1.13.08-1.13-.64l0-6.45,0,6.45c0,.71.51,1,1.13.64l2.66-1.54,0-7.73Z" transform="translate(0.18 -6.38)"/>
					<path class="cls-14" d="M159.07,174.34l0,7.73-2.66,1.54c-.62.36-1.13.08-1.13-.64l0-6.45.56-.32Z" transform="translate(0.18 -6.38)"/>
					<polygon class="cls-18" points="159.24 164.08 159.24 166.66 156.85 168.04 156.85 165.46 157.13 165.3 159.24 164.08"/>
					<path class="cls-10" d="M161.14,160.92l0,8.33-2.11,1.22-2.1,1.21v0l2.1-1.21v-5a7,7,0,0,1-1.69,1.95c-.13.08-.24.1-.32.05s.18,0,.31-.06a9.87,9.87,0,0,0,2.35-3l.09-.16,0,0,.07-.13,0,0A9.36,9.36,0,0,0,161.14,160.92Z" transform="translate(0.18 -6.38)"/>
				</g>
				<g class="cls-1">
					<polygon class="cls-16" points="172.31 165.6 172.31 166.89 168.44 169.12 164.46 171.42 164.44 170.14 164.45 171.43 168.43 169.13 168.42 167.84 172.31 165.6"/>
					<polygon class="cls-15" points="168.42 167.84 168.43 169.13 164.45 171.43 164.44 170.14 164.46 170.13 168.42 167.84"/>
					<path class="cls-13" d="M171,167.45c.62-.36,1.13-.08,1.13.64l0,6.45-7.86,4.54v0l4-2.3v-1.27l3.87-2.23V172l-3.87,2.23V169Z" transform="translate(0.18 -6.38)"/>
				</g>
					<polygon class="cls-14" points="164.46 171.42 168.43 169.13 168.44 169.12 168.44 170.39 164.47 172.69 164.46 171.42"/>
					<path class="cls-14" d="M165.39,170.69l2.85-1.65v5.17l-4,2.3v-3.89A2.46,2.46,0,0,1,165.39,170.69Z" transform="translate(0.18 -6.38)"/>
					<path class="cls-18" d="M196.21,141l1.14-.66V143l-1.14.66v-.54l.07,0a1.49,1.49,0,0,0,.67-1.18c0-.43-.3-.6-.68-.39l-.07,0Z" transform="translate(0.18 -6.38)"/>
					<path class="cls-15" d="M194.53,158.49a7.18,7.18,0,0,0,2.87-1v2.63l-5.15,3c-.32.18-.58,0-.58-.33a1.25,1.25,0,0,1,.57-1l.57-.33Z" transform="translate(0.18 -6.38)"/>
					<path class="cls-16" d="M200.27,155.18l1.72,1,.57-.33c.32-.18.58,0,.58.32a1.26,1.26,0,0,1-.57,1l-5.15,3-5.15,3c-.32.18-.58,0-.58-.33,0,.37.26.51.58.33l5.15-3v-2.63l.19-.11A12.55,12.55,0,0,0,200.27,155.18Z" transform="translate(0.18 -6.38)"/>
					<polygon class="cls-15" points="197.54 136.62 197.54 138.27 195.25 139.59 195.24 137.95 196.39 137.28 197.54 136.62"/>
					<path class="cls-16" d="M196.28,141.53c.38-.22.68,0,.68.39a1.49,1.49,0,0,1-.67,1.18l-.07,0v-1.55Z" transform="translate(0.18 -6.38)"/>
					<polygon class="cls-16" points="199.83 135.3 199.83 136.94 199.64 137.06 197.54 138.27 195.45 139.47 195.25 139.59 195.24 137.95 195.25 139.59 197.54 138.27 197.54 136.62 198.68 135.96 199.83 135.3"/>
					<path class="cls-6" d="M197.36,144.65l0,12.83a7,7,0,0,1-2.86,1c-2.13.18-3.44-1.31-3.45-3.94a12.45,12.45,0,0,1,4.19-8.68Z" transform="translate(0.18 -6.38)"/>
				<g class="cls-1">
					<path class="cls-12" d="M199.46,143.44c2.6-.63,4.22.91,4.22,3.82a12.19,12.19,0,0,1-3.41,7.91,12.5,12.5,0,0,1-2.65,2.18l-.22.13,0-12.83Z" transform="translate(0.18 -6.38)"/>
					<path class="cls-14" d="M203.09,135.74a4.32,4.32,0,0,1,1.7-.58l-3.47,6a1.9,1.9,0,0,1-.5-1.5A4.52,4.52,0,0,1,203.09,135.74Z" transform="translate(0.18 -6.38)"/>
					<path class="cls-13" d="M203.08,135.75h0a4.52,4.52,0,0,0-2.28,3.94,1.9,1.9,0,0,0,.5,1.5l3.47-6c1-.09,1.73.29,1.73,1.22,0,1.46-1.84,3.7-3.43,4.62s-2.3.15-2.3-1.31A4.52,4.52,0,0,1,203.08,135.75Z" transform="translate(0.18 -6.38)"/>
					<polygon class="cls-19" points="200.97 133 200.97 133.65 198.68 134.97 198.68 134.32 200.97 133"/>
				</g>
					<polygon class="cls-15" points="198.67 133.33 198.68 135.96 197.54 136.62 197.53 133.99 198.67 133.33"/>
				<g class="cls-1">
					<path class="cls-10" d="M247.3,122.81c.91-.52,1.64-.1,1.65.94l0,6.28a1.19,1.19,0,0,1-.54.94l-6.57,3.79v-1.89l4.92-2.84v-5l-4.92,2.84V126Z" transform="translate(0.18 -6.38)"/>
					<path class="cls-10" d="M247.94,114c.75-.43,1.44-.23,1.61.56l2.59,12a3.45,3.45,0,0,1-1.25,3l-.14.1c-.24.14-.46.07-.51-.18l-3.08-14.27a1.11,1.11,0,0,1,.4-1A2.6,2.6,0,0,1,247.94,114Z" transform="translate(0.18 -6.38)"/>
					<polygon class="cls-6" points="246.93 118.63 246.94 123.65 242.02 126.5 237.1 129.34 237.09 124.31 242.01 121.47 246.93 118.63"/>
					<path class="cls-11" d="M241.83,126v1.89l-4.92,2.84v5l4.92-2.84v1.89l-6.56,3.79c-.3.17-.55,0-.55-.31l0-6.28a2.91,2.91,0,0,1,.18-1l0-.07a3.92,3.92,0,0,1,.87-1.35l.07-.07.07-.06,0,0,0,0,0,0,0,0,0,0,0,0,0,0,0,0,0,0,.08,0Z" transform="translate(0.18 -6.38)"/>
					<path class="cls-12" d="M242.08,118.26c1.64-.95,5.21-.17,3.57,3l-3.83,2.21V119.7A2.79,2.79,0,0,0,242.08,118.26Z" transform="translate(0.18 -6.38)"/>
					<path class="cls-13" d="M246.2,120.92c.3-.17.54,0,.54.31v1.89l-9.85,5.68v0l4.92-2.84v-2.52Z" transform="translate(0.18 -6.38)"/>
					<path class="cls-14" d="M241.82,123.45V126l-4.92,2.84v-1.89a1.2,1.2,0,0,1,.55-.94Z" transform="translate(0.18 -6.38)"/>
					<path class="cls-12" d="M241.68,120a21.36,21.36,0,0,1-3.06,3.65A21.57,21.57,0,0,0,241.68,120Z" transform="translate(0.18 -6.38)"/>
					<path class="cls-6" d="M241.81,119.7v3.76L238,125.66s-.27.15-.27-.48c0,0,0,0,0-.05v-.31l0,0v-.06l0-.08a4.72,4.72,0,0,1,.65-.92l0,0,0,0,0,0a21.36,21.36,0,0,0,3.06-3.65v0l0,0,0-.08Z" transform="translate(0.18 -6.38)"/>
				</g>
					<path class="cls-10" d="M235.79,129.57a3.92,3.92,0,0,0-.87,1.35A3.83,3.83,0,0,1,235.79,129.57Z" transform="translate(0.18 -6.38)"/>
					<polygon id="banner_1" class="cls-9" points="80.57 363.93 80.18 226.2 112.48 207.56 112.87 345.29 80.57 363.93"/>
				<g class="cls-1">
					<polygon class="cls-16" points="96.11 248.02 96.11 249.48 92.12 251.79 92.11 250.32 95.15 248.57 96.11 248.02"/>
					<polygon class="cls-15" points="95.14 245.63 95.15 248.57 92.11 250.32 92.11 247.38 94.5 246 95.14 245.63"/>
					<path class="cls-13" d="M96.58,255.49l0,7.34A2.81,2.81,0,0,1,95.32,265l-6.39,3.69c-.7.41-1.28.08-1.28-.73l0-7.34,0,7.34c0,.81.58,1.14,1.28.73L92,267l0-8.81Z" transform="translate(0.18 -6.38)"/>
					<path class="cls-14" d="M91.94,258.17,92,267l-3,1.75c-.7.41-1.28.08-1.28-.73l0-7.34.64-.37Z" transform="translate(0.18 -6.38)"/>
					<polygon class="cls-15" points="92.11 250.32 92.12 251.79 88.44 253.91 88.44 252.44 89.39 251.89 92.11 250.32"/>
					<polygon class="cls-18" points="92.11 247.38 92.11 250.32 89.39 251.89 89.39 248.96 89.71 248.77 92.11 247.38"/>
				</g>
					<polygon class="cls-16" points="106.99 249.1 106.99 250.58 102.58 253.12 98.06 255.74 98.04 254.27 98.05 255.74 102.57 253.13 102.57 251.66 106.99 249.1"/>
					<polygon class="cls-15" points="102.57 251.66 102.57 253.13 98.05 255.74 98.04 254.27 98.05 254.26 102.57 251.66"/>
					<polygon class="cls-14" points="98.06 255.74 102.57 253.13 102.58 253.12 102.59 254.57 98.06 257.18 98.06 255.74"/>
					<path class="cls-14" d="M99.14,254l3.25-1.88,0,5.89-4.53,2.61v-4.42A2.82,2.82,0,0,1,99.14,254Z" transform="translate(0.18 -6.38)"/>
					<path class="cls-13" d="M105.53,250.33c.71-.41,1.29-.08,1.29.73l0,7.34-9,5.17v0l4.53-2.61v-1.45l4.41-2.54v-1.47L102.4,258l0-5.89Z" transform="translate(0.18 -6.38)"/>
					<path class="cls-10" d="M91,249.32a4.42,4.42,0,0,1-1,1,.43.43,0,0,1-.33.08.43.43,0,0,0,.32-.08A4.44,4.44,0,0,0,91,249.32Z" transform="translate(0.18 -6.38)"/>
				<g class="cls-1">
					<path class="cls-11" d="M91.91,248.07l0,5.7-2.39,1.38v-5a.25.25,0,0,0,.11.17c.09,0,.21,0,.36-.06a4.42,4.42,0,0,0,1-1l.07-.08C91.34,248.9,91.62,248.51,91.91,248.07Z" transform="translate(0.18 -6.38)"/>
					<path class="cls-17" d="M93.82,242.55c.15-.09.27-.11.36-.06s.14.23.12.48a12.3,12.3,0,0,1-1.63,3.89c-.25.43-.51.84-.76,1.22s-.58.83-.85,1.16l-.06.07a4.48,4.48,0,0,1-1,1c-.15.09-.27.11-.36.06a.25.25,0,0,1-.11-.17c-.13-.57.53-2.3,1.62-4.2A11.3,11.3,0,0,1,93.82,242.55Z" transform="translate(0.18 -6.38)"/>
				</g>
					<path class="cls-10" d="M92.67,246.85A12.3,12.3,0,0,0,94.3,243l0,9.43-2.39,1.38,0-5.7C92.16,247.7,92.42,247.29,92.67,246.85Z" transform="translate(0.18 -6.38)"/>
					<path class="cls-15" d="M92.8,306.22a8.31,8.31,0,0,0,3.27-1.14v3l-5.87,3.39c-.36.21-.65,0-.65-.38A1.43,1.43,0,0,1,90.2,310l.65-.38Z" transform="translate(0.18 -6.38)"/>
					<path class="cls-12" d="M98.4,289.09c3-.72,4.81,1,4.82,4.36a13.89,13.89,0,0,1-3.89,9,14.31,14.31,0,0,1-2.81,2.35l-.21.13,0,0-.22.13,0-14.61Z" transform="translate(0.18 -6.38)"/>
					<polygon class="cls-15" points="97.49 278.45 97.5 281.45 96.19 282.21 96.19 279.21 97.49 278.45"/>
					<path class="cls-6" d="M96,290.46l0,14.61a8.16,8.16,0,0,1-3.26,1.14c-2.43.2-3.92-1.49-3.93-4.49a14.18,14.18,0,0,1,4.78-9.89Z" transform="translate(0.18 -6.38)"/>
				<g class="cls-1">
					<polygon class="cls-16" points="98.81 280.7 98.81 282.57 98.58 282.7 96.2 284.08 93.83 285.45 93.59 285.59 93.58 283.71 93.59 285.59 96.2 284.08 96.19 282.21 97.5 281.45 98.81 280.7"/>
					<polygon class="cls-15" points="96.19 282.21 96.2 284.08 93.59 285.59 93.58 283.71 94.89 282.96 96.19 282.21"/>
					<path class="cls-18" d="M94.71,286.34l1.3-.75v3l-1.3.75v-.62l.08,0a1.71,1.71,0,0,0,.77-1.34c0-.49-.35-.69-.78-.44l-.08.06Z" transform="translate(0.18 -6.38)"/>
				</g>
					<path class="cls-16" d="M99.33,302.45l2,1.11.65-.38c.36-.21.66,0,.66.37a1.44,1.44,0,0,1-.66,1.14l-5.87,3.39-5.87,3.39c-.36.21-.65,0-.65-.38,0,.42.29.59.65.38l5.87-3.39v-3l.22-.13,0,0,.19-.12A14.35,14.35,0,0,0,99.33,302.45Z" transform="translate(0.18 -6.38)"/>
					<polygon class="cls-19" points="100.1 278.07 100.11 278.82 97.49 280.33 97.49 279.58 100.1 278.07"/>
					<path class="cls-14" d="M102.54,280.32a4.9,4.9,0,0,1,1.94-.66l-4,6.86a2.15,2.15,0,0,1-.57-1.7A5.16,5.16,0,0,1,102.54,280.32Z" transform="translate(0.18 -6.38)"/>
					<path class="cls-13" d="M102.53,280.33a5.15,5.15,0,0,0-2.58,4.49,2.15,2.15,0,0,0,.57,1.7l4-6.84c1.1-.1,2,.33,2,1.39,0,1.66-2.1,4.22-3.91,5.26s-2.62.17-2.62-1.49A5.15,5.15,0,0,1,102.53,280.33Z" transform="translate(0.18 -6.38)"/>
					<path class="cls-16" d="M94.79,286.9c.43-.25.77,0,.78.44a1.71,1.71,0,0,1-.77,1.34l-.08,0V287Z" transform="translate(0.18 -6.38)"/>
					<path class="cls-10" d="M102.58,338.75c1-.6,1.87-.12,1.88,1.07l0,7.15a1.38,1.38,0,0,1-.62,1.08l-7.48,4.32v-2.15L102,347l0-5.72-5.61,3.24v-2.15Z" transform="translate(0.18 -6.38)"/>
					<path class="cls-10" d="M89.23,346.71a4.52,4.52,0,0,0-.54.83A4.43,4.43,0,0,1,89.23,346.71Z" transform="translate(0.18 -6.38)"/>
					<path class="cls-12" d="M95.35,336.74C94,338.46,92,340,91.7,341.17,92,340,94,338.46,95.35,336.74Z" transform="translate(0.18 -6.38)"/>
					<path class="cls-13" d="M101.32,336.6c.34-.2.62,0,.62.35v2.15l-11.21,6.47v0l5.61-3.24v-2.86Z" transform="translate(0.18 -6.38)"/>
				<g class="cls-1">
					<polygon class="cls-6" points="102.13 334.87 102.15 340.6 96.55 343.83 90.94 347.07 90.92 341.35 96.53 338.11 102.13 334.87"/>
					<path class="cls-11" d="M96.35,342.34v2.15l-5.61,3.24,0,5.72,5.61-3.24v2.15l-7.48,4.32c-.34.2-.63,0-.63-.36l0-7.15a3.56,3.56,0,0,1,.35-1.46l0-.08,0-.07a4.58,4.58,0,0,1,.55-.85l.07-.09.07-.08,0,0,0,0,0,0,0,0,.05-.05,0,0,.06-.05.09-.07.09-.07,0,0,.06,0,0,0,0,0,.09-.06Z" transform="translate(0.18 -6.38)"/>
					<path class="cls-12" d="M96.63,333.57c1.87-1.08,5.93-.2,4.06,3.39l-4.36,2.52V335.2A3.16,3.16,0,0,0,96.63,333.57Z" transform="translate(0.18 -6.38)"/>
					<path class="cls-14" d="M96.34,339.48v2.86l-5.61,3.24v-2.15a1.35,1.35,0,0,1,.62-1.07Z" transform="translate(0.18 -6.38)"/>
					<path class="cls-6" d="M96.33,335.2v4.28L92,342s-.31.18-.31-.54c0,0,0,0,0-.06v-.07a1.29,1.29,0,0,1,0-.14c.31-1.15,2.29-2.72,3.65-4.44l0,0,0,0A7.29,7.29,0,0,0,96.33,335.2Z" transform="translate(0.18 -6.38)"/>
				</g>
					<path class="cls-10" d="M103.3,328.67c.86-.5,1.64-.26,1.83.64l3,13.71a3.92,3.92,0,0,1-1.42,3.38l-.15.11c-.28.16-.52.08-.58-.21L102.43,330a1.25,1.25,0,0,1,.45-1.08A3,3,0,0,1,103.3,328.67Z" transform="translate(0.18 -6.38)"/>
				<g id="desktop_mask">
					<polygon class="cls-20" points="272.38 144.59 272.39 149.48 125.33 234.38 125.31 229.5 272.38 144.59"/>
					<polygon class="cls-20" points="272.35 134.83 272.36 139.71 125.3 224.62 125.29 219.73 272.35 134.83"/>
					<polygon class="cls-20" points="341.03 183.23 341.04 188.11 285.79 220.01 285.77 215.13 341.03 183.23"/>
					<polygon class="cls-20" points="341 173.46 341.02 178.34 285.76 210.25 285.75 205.36 341 173.46"/>
					<polygon class="cls-20" points="340.97 163.69 340.99 168.58 285.73 200.48 285.72 195.59 340.97 163.69"/>
					<polygon class="cls-20" points="340.94 153.92 340.96 158.81 285.7 190.71 285.69 185.83 340.94 153.92"/>
					<polygon class="cls-20" points="340.92 144.16 340.93 149.04 285.68 180.94 285.66 176.06 340.92 144.16"/>
					<polygon class="cls-20" points="272.65 242.27 272.67 247.15 217.41 279.06 217.4 274.17 272.65 242.27"/>
					<polygon class="cls-20" points="272.54 203.2 272.56 208.09 217.3 239.99 217.29 235.1 272.54 203.2"/>
					<polygon class="cls-20" points="272.49 183.66 272.5 188.55 217.25 220.45 217.23 215.57 272.49 183.66"/>
					<polygon class="cls-20" points="272.43 164.13 272.45 169.01 125.38 253.92 125.37 249.04 272.43 164.13"/>
					<polygon class="cls-20" points="272.6 222.74 272.61 227.62 217.35 259.52 217.34 254.64 272.6 222.74"/>
					<polygon class="cls-20" points="272.4 154.36 272.42 159.24 125.36 244.15 125.34 239.27 272.4 154.36"/>
					<polygon class="cls-20" points="272.51 193.43 272.53 198.31 217.27 230.22 217.26 225.33 272.51 193.43"/>
					<polygon class="cls-20" points="211.71 218.76 211.9 287.62 126.05 337.19 125.85 268.33 211.71 218.76"/>
					<path class="cls-21" d="M357,19.85,63.7,189.17l.63,220.27L357.6,240.12ZM80.39,370.32,80,232.59l32.3-18.65.39,137.73-32.3,18.65m44.71-144.2,147.06-84.91v4.88L125.12,231v-4.88m0,9.77L272.2,151v4.88L125.15,240.77l0-4.88m0,9.77,147.06-84.91v4.88L125.18,250.53v-4.88m0,9.77,147.07-84.91v4.88L125.21,260.31l0-4.88m0,9.77,147.06-84.91v4.88L125.23,270.07v-4.88m.65,78.39-.2-68.87,85.86-49.57.19,68.87-85.86,49.57M217.05,222,272.31,190v4.88l-55.26,31.9V222m0,9.77,55.26-31.9v4.88L217.1,236.6v-4.88m0,9.77,55.26-31.9v4.89l-55.26,31.9v-4.89m0,9.77,55.26-31.9v4.88l-55.26,31.9v-4.88m0,9.77,55.25-31.9,0,4.88-55.26,31.9V261m0,9.77,55.25-31.9v4.88l-55.26,31.9v-4.88m0,14.65v-4.88l55.26-31.9v4.88l-55.26,31.9m-92.18-78.86L125,179.23,272.46,94.08l.08,27.35L125.05,206.58m160.29-73,55.26-31.9.12,44-55.26,31.9-.13-44m.14,48.84,55.26-31.9v4.88l-55.26,31.9v-4.88m0,9.77,55.26-31.9,0,4.88-55.26,31.9v-4.88m0,9.77,55.25-31.9,0,4.89-55.26,31.9V202m0,9.77,55.26-31.9v4.88l-55.26,31.9v-4.88m0,14.65v-4.88l55.26-31.9v4.88l-55.26,31.9" transform="translate(0.18 -6.38)"/>
					<polygon class="cls-20" points="272.63 232.5 217.37 264.41 217.38 269.29 272.64 237.39 272.63 232.5"/>
					<polygon class="cls-20" points="272.57 212.97 272.58 217.85 217.33 249.75 217.31 244.87 272.57 212.97"/>
					<polygon class="cls-20" points="272.46 173.9 272.47 178.78 125.41 263.69 125.4 258.81 272.46 173.9"/>
				</g>
		</g>
		<g id="tablet">
				<g id="tablet-2" data-name="tablet">
					<g id="tablet_body">
						<g class="cls-1">
							<path class="cls-7" d="M413,244.85l.22.13,4.19,2.44a3.13,3.13,0,0,0-3.16.31l-4.41-2.56A3.13,3.13,0,0,1,413,244.85Z" transform="translate(0.18 -6.38)"/>
							<path class="cls-5" d="M227.2,502.49l-4.41-2.56a3.1,3.1,0,0,1-1.3-2.84l4.41,2.57A3.1,3.1,0,0,0,227.2,502.49Z" transform="translate(0.18 -6.38)"/>
							<polygon class="cls-5" points="226.08 493.27 221.66 490.7 221.27 352.88 225.69 355.44 226.08 493.27"/>
							<polygon class="cls-6" points="230.12 347.78 225.7 345.21 410.06 238.77 414.47 241.34 230.12 347.78"/>
							<path class="cls-6" d="M225.51,361.83l-4.41-2.56a9.8,9.8,0,0,1,4.43-7.67l4.41,2.57A9.8,9.8,0,0,0,225.51,361.83Z" transform="translate(0.18 -6.38)"/>
							<path class="cls-7" d="M414.29,247.72c2.45-1.41,4.45-.27,4.46,2.54l.39,137.82a9.79,9.79,0,0,1-4.43,7.67L230.36,502.19c-2.44,1.41-4.45.27-4.46-2.54l-.39-137.82a9.8,9.8,0,0,1,4.43-7.67Z" transform="translate(0.18 -6.38)"/>
						</g>
						<g class="cls-1">
							<polygon class="cls-7" points="224.09 364.21 224.68 363.87 224.64 378.22 224.05 378.56 224.09 364.21"/>
							<polygon class="cls-6" points="221.71 362.83 222.3 362.49 224.68 363.87 224.09 364.21 221.71 362.83"/>
							<polygon class="cls-21" points="224.09 364.21 224.05 378.56 221.67 377.19 221.71 362.83 224.09 364.21"/>
						</g>
						<g class="cls-1">
							<polygon class="cls-7" points="224.09 382.16 224.68 381.81 224.64 396.16 224.05 396.51 224.09 382.16"/>
							<polygon class="cls-6" points="221.71 380.78 222.3 380.44 224.68 381.81 224.09 382.16 221.71 380.78"/>
							<polygon class="cls-21" points="224.09 382.16 224.05 396.51 221.67 395.13 221.71 380.78 224.09 382.16"/>
						</g>
					</g>
					<g id="banner">
						<polygon class="cls-9" points="400.32 270.69 400.5 335 246.35 424 246.17 359.68 400.32 270.69"/>
					</g>
					<g id="item_3">
							<path class="cls-11" d="M272.93,372.42l0,9.38-4,2.28,0-8.25a.55.55,0,0,0,.12.29l0,0,0,0c.14.08.34,0,.59-.1a12,12,0,0,0,2.85-3.2l.14-.21,0,0Z" transform="translate(0.18 -6.38)"/>
						<g class="cls-1">
							<polygon class="cls-15" points="278.14 372.52 278.15 377.37 273.14 380.26 273.13 375.42 277.09 373.13 278.14 372.52"/>
							<path class="cls-13" d="M280.62,384.66l0,12.11a4.63,4.63,0,0,1-2.1,3.64L268,406.49c-1.16.67-2.11.13-2.11-1.2l0-12.11,0,12.11c0,1.34,1,1.88,2.11,1.2l5-2.89,0-14.53Z" transform="translate(0.18 -6.38)"/>
							<path class="cls-14" d="M273,389.07l0,14.53-5,2.89c-1.16.67-2.11.13-2.11-1.2l0-12.11,1.05-.61Z" transform="translate(0.18 -6.38)"/>
							<polygon class="cls-15" points="273.14 380.26 273.15 382.69 267.09 386.19 267.08 383.76 268.67 382.85 273.14 380.26"/>
							<polygon class="cls-18" points="273.13 375.42 273.14 380.26 268.67 382.85 268.65 378 269.18 377.7 273.13 375.42"/>
							<path class="cls-10" d="M275,368.88a15.82,15.82,0,0,0,1.86-5l0,15.62-4,2.29,0-9.38-.15.22c.46-.68.93-1.43,1.4-2.23l.13-.23,0,0,.13-.23.13-.24,0,0,.13-.23.13-.25Z" transform="translate(0.18 -6.38)"/>
						</g>
						<g class="cls-1">
							<polygon class="cls-14" points="282.95 389.19 290.39 384.89 290.42 384.87 290.42 387.27 282.95 391.58 282.95 389.19"/>
							<polygon class="cls-16" points="297.68 378.25 297.68 380.68 290.42 384.87 282.95 389.19 282.91 386.78 282.92 389.2 290.39 384.89 290.38 382.46 297.68 378.25"/>
							<polygon class="cls-15" points="290.38 382.46 290.39 384.89 282.92 389.2 282.91 386.78 282.94 386.76 290.38 382.46"/>
							<path class="cls-14" d="M284.85,382.21l5.36-3.09,0,9.71h0l-7.44,4.3,0-7.29A4.64,4.64,0,0,1,284.85,382.21Z" transform="translate(0.18 -6.38)"/>
						</g>
							<path class="cls-13" d="M295.38,376.13c1.17-.67,2.12-.13,2.12,1.2l0,12.11L282.78,398v0l7.47-4.31v-2.4l7.27-4.2v-2.42l-7.27,4.2,0-9.71Z" transform="translate(0.18 -6.38)"/>
							<path class="cls-10" d="M272.61,372.88a12,12,0,0,1-2.85,3.2c-.25.14-.45.18-.59.1.14.08.34,0,.59-.1A12,12,0,0,0,272.61,372.88Z" transform="translate(0.18 -6.38)"/>
							<polygon class="cls-16" points="279.73 376.46 279.74 378.88 273.15 382.69 273.14 380.26 278.15 377.37 279.73 376.46"/>
							<path class="cls-17" d="M276.07,363.3c.25-.14.45-.19.59-.11s.22.33.2.7a15.77,15.77,0,0,1-1.85,5l-.13.25-.13.24-.14.25,0,0-.12.22-.14.25,0,0-.13.23c-.46.8-.93,1.55-1.4,2.23l0,0-.13.2a12.06,12.06,0,0,1-2.87,3.21c-.25.14-.45.18-.59.1l0,0,0,0a.56.56,0,0,1-.12-.29c-.16-1,.92-3.8,2.68-6.85C273.31,366.1,275.08,363.87,276.07,363.3Z" transform="translate(0.18 -6.38)"/>
						</g>
						<g id="item_2">
								<path class="cls-16" d="M319.33,341.72c.7-.41,1.27-.07,1.27.73a2.8,2.8,0,0,1-1.27,2.2l-.13.06v-2.91Z" transform="translate(0.18 -6.38)"/><path class="cls-14" d="M332.11,330.86a8.07,8.07,0,0,1,3.2-1.08l-6.53,11.31a3.57,3.57,0,0,1-.94-2.81A8.5,8.5,0,0,1,332.11,330.86Z" transform="translate(0.18 -6.38)"/>
							<g class="cls-1">
								<path class="cls-12" d="M325.28,345.32c4.88-1.19,7.92,1.7,7.94,7.18,0,4.9-2.4,10.54-6.41,14.86a23.36,23.36,0,0,1-5.19,4.22l-.2.12-.07-24.1Z" transform="translate(0.18 -6.38)"/>
								<polygon class="cls-19" points="327.97 331.3 327.98 332.54 323.67 335.02 323.67 333.79 327.97 331.3"/>
								<polygon class="cls-16" points="325.83 335.63 325.84 338.72 325.46 338.94 321.53 341.21 317.62 343.47 317.23 343.69 317.22 340.6 317.23 343.69 321.53 341.21 321.53 338.12 323.68 336.88 325.83 335.63"/>
								<polygon class="cls-15" points="321.53 338.12 321.53 341.21 317.23 343.69 317.22 340.6 319.38 339.36 321.53 338.12"/>
								<polygon class="cls-15" points="323.66 331.93 323.68 336.88 321.53 338.12 321.51 333.17 323.66 331.93"/>
								<path class="cls-6" d="M321.36,347.59l.07,24.1a13.29,13.29,0,0,1-5.38,1.86c-4,.33-6.47-2.46-6.48-7.4,0-5.52,3-11.9,7.88-16.31Z" transform="translate(0.18 -6.38)"/>
								<path class="cls-18" d="M319.19,340.8l2.15-1.24v4.94l-2.15,1.24v-1l.13-.06a2.8,2.8,0,0,0,1.27-2.2c0-.81-.57-1.14-1.27-.73l-.13.09Z" transform="translate(0.18 -6.38)"/>
							</g>
								<path class="cls-15" d="M316,373.58a13.64,13.64,0,0,0,5.39-1.88v4.94l-9.68,5.59c-.59.34-1.07.07-1.08-.61a2.38,2.38,0,0,1,1.07-1.86l1.08-.62Z" transform="translate(0.18 -6.38)"/>
								<path class="cls-16" d="M326.81,367.36l3.22,1.83,1.08-.62c.59-.34,1.07-.06,1.08.62a2.35,2.35,0,0,1-1.07,1.85l-9.69,5.59-9.68,5.59c-.59.34-1.07.07-1.08-.61,0,.68.49,1,1.08.61l9.68-5.59v-4.94l.18-.11A23.39,23.39,0,0,0,326.81,367.36Z" transform="translate(0.18 -6.38)"/>
								<path class="cls-13" d="M332.09,330.87a8.49,8.49,0,0,0-4.24,7.4,3.57,3.57,0,0,0,.94,2.81l6.52-11.3c1.81-.16,3.25.55,3.25,2.3,0,2.73-3.47,7-6.44,8.67s-4.31.27-4.32-2.46A8.51,8.51,0,0,1,332.09,330.87Z" transform="translate(0.18 -6.38)"/>
							</g>
							<g id="item_1">
								<g class="cls-1">
									<path class="cls-10" d="M368.43,332.46c1.7-1,3.08-.19,3.09,1.77l0,11.8a2.25,2.25,0,0,1-1,1.77l-12.33,7.12v-3.54l9.24-5.34,0-9.44-9.24,5.34v-3.54Z" transform="translate(0.18 -6.38)"/>
									<path class="cls-10" d="M369.62,315.85c1.42-.82,2.7-.43,3,1l4.87,22.61c.37,1.7-.69,4.2-2.34,5.57a1.91,1.91,0,0,1-.26.18c-.45.26-.86.13-1-.34l-5.78-26.8a2.06,2.06,0,0,1,.75-1.78A4.67,4.67,0,0,1,369.62,315.85Z" transform="translate(0.18 -6.38)"/>
									<polygon class="cls-6" points="367.58 330.21 367.61 339.66 358.37 345 349.11 350.34 349.09 340.89 358.34 335.55 367.58 330.21"/>
									<path class="cls-11" d="M358.15,338.39v3.54l-9.25,5.34,0,9.44,9.25-5.34v3.54L345.86,362c-.57.33-1,.07-1-.59l0-11.8a6.21,6.21,0,0,1,.86-3l0-.08.14-.23.06-.09.06-.08.15-.21a6.1,6.1,0,0,1,1.55-1.53l.07,0,.07,0,.07,0Z" transform="translate(0.18 -6.38)"/><path class="cls-6" d="M358.12,326.62l0,7.06-7.2,4.15s-.52.3-.52-.89c0,0,0,0,0-.06v-.14c.17-1.25,1.69-2.83,3.39-4.59A21.84,21.84,0,0,0,358.12,326.62Z" transform="translate(0.18 -6.38)"/>
									<path class="cls-12" d="M358.62,323.93c3.08-1.78,9.78-.32,6.7,5.59l-7.19,4.15,0-7.06a21.84,21.84,0,0,1-4.29,5.53C356.21,329.66,358.92,326.79,358.62,323.93Z" transform="translate(0.18 -6.38)"/><path class="cls-13" d="M366.36,328.93c.57-.33,1-.07,1,.58v3.54l-18.5,10.68v0l9.25-5.34v-4.72Z" transform="translate(0.18 -6.38)"/><path class="cls-14" d="M358.14,333.68v4.72l-9.25,5.34v-3.54a2.25,2.25,0,0,1,1-1.77Z" transform="translate(0.18 -6.38)"/>
								</g>
							</g>
							<g id="tablet_mask" class="cls-1">
								<polygon class="cls-20" points="400.1 351.08 400.12 356.18 246.41 444.92 246.4 439.82 400.1 351.08"/>
								<polygon class="cls-20" points="400.07 340.87 400.09 345.98 246.39 434.72 246.37 429.61 400.07 340.87"/>
								<path class="cls-7" d="M414.3,247.42c2.44-1.41,4.45-.27,4.46,2.54l.39,137.82a9.79,9.79,0,0,1-4.43,7.67L230.36,501.89c-2.45,1.41-4.45.27-4.46-2.54l-.39-137.82a9.8,9.8,0,0,1,4.43-7.67Zm-.5,137.74-.36-126.42c0-2.57-1.9-3.59-4.21-2.26L235,357a9.12,9.12,0,0,0-4.19,7.1l.36,126.42c0,2.57,1.9,3.59,4.21,2.26L409.62,392.26a9.12,9.12,0,0,0,4.18-7.1" transform="translate(0.18 -6.38)"/>
								<path class="cls-7" d="M231.22,490.57c0,2.57,1.9,3.59,4.21,2.26C233.12,494.16,231.23,493.14,231.22,490.57Z" transform="translate(0.18 -6.38)"/>
								<path class="cls-21" d="M231.95,492.77c.76.81,2,.89,3.48.06L409.61,392.26a7.31,7.31,0,0,0,1.63-1.31,10,10,0,0,0,1.84-2.77,8.42,8.42,0,0,0,.63-2,5.93,5.93,0,0,0,.08-1l-.36-126.42a2.94,2.94,0,0,0-1-2.42,2.1,2.1,0,0,0-1.24-.43,3.5,3.5,0,0,0-1.57.36l-.43.22L235,357a6.51,6.51,0,0,0-.84.58,9.66,9.66,0,0,0-2.63,3.5,7.55,7.55,0,0,0-.71,3l.36,126.42A3.16,3.16,0,0,0,231.95,492.77ZM246.19,436l153.7-88.74v5.1L246.21,441.1V436m0,10.21,153.7-88.74v5.1l-153.7,88.74,0-5.1m0,10.21L400,367.67v5.1l-153.7,88.74v-5.1m0,15.32,0-5.1L400,377.88V383l-153.7,88.74M400.14,277.07l.18,64.32-154.15,89L246,366.06l154.15-89" transform="translate(0.18 -6.38)"/>
								<polygon class="cls-20" points="400.16 371.5 400.17 376.61 246.47 465.35 246.46 460.24 400.16 371.5"/>
								<polygon class="cls-20" points="400.13 361.29 400.15 366.39 246.44 455.13 246.43 450.03 400.13 361.29"/>
							</g>
						</g>
				</g>
				<g id="phone" >
						<g id="phone-2" data-name="phone">
							<g id="phone_body">
								<g class="cls-1">
									<path class="cls-7" d="M451.57,358.48c2-1.18,3.71-.22,3.72,2.12l.34,120.21a8.19,8.19,0,0,1-3.7,6.41l-54.54,31.49c-2,1.18-3.71.22-3.72-2.12l-.34-120.21A8.17,8.17,0,0,1,397,390Z" transform="translate(0.18 -6.38)"/>
									<path class="cls-5" d="M394.76,519l-3.69-2.14a2.59,2.59,0,0,1-1.09-2.38l3.68,2.14A2.6,2.6,0,0,0,394.76,519Z" transform="translate(0.18 -6.38)"/>
									<path class="cls-7" d="M450.52,356.09l3.69,2.14a2.61,2.61,0,0,0-2.64.25l-3.69-2.14A2.61,2.61,0,0,1,450.52,356.09Z" transform="translate(0.18 -6.38)"/>
									<polygon class="cls-5" points="393.85 510.2 390.16 508.06 389.82 387.85 393.51 389.99 393.85 510.2"/>
									<polygon class="cls-6" points="397.21 383.58 393.52 381.44 448.06 349.96 451.74 352.1 397.21 383.58"/>
									<path class="cls-6" d="M393.33,396.37l-3.69-2.14a8.18,8.18,0,0,1,3.7-6.4L397,390A8.17,8.17,0,0,0,393.33,396.37Z" transform="translate(0.18 -6.38)"/>
								</g>
								<g class="cls-1">
									<polygon class="cls-7" points="392.25 403.99 392.75 403.7 392.71 415.69 392.22 415.97 392.25 403.99"/>
									<polygon class="cls-6" points="390.26 402.84 390.76 402.55 392.75 403.7 392.25 403.99 390.26 402.84"/>
									<polygon class="cls-21" points="392.25 403.99 392.22 415.97 390.23 414.83 390.26 402.84 392.25 403.99"/>
								</g>
							</g>
								<polygon id="banner-2" data-name="banner" class="cls-9" points="443.73 410.58 443.82 441.27 405.24 463.55 405.15 432.86 443.73 410.58"/><g id="item_1-2" data-name="item_1">
							<g class="cls-1">
								<path class="cls-10" d="M432.25,438.15c1.29-.74,2.34-.15,2.34,1.34l0,9a1.71,1.71,0,0,1-.78,1.34l-9.37,5.41v-2.69l7-4.05,0-7.18-7,4.05v-2.69Z" transform="translate(0.18 -6.38)"/>
								<path class="cls-10" d="M433.16,425.53c1.08-.62,2-.32,2.29.8l3.71,17.17a4.91,4.91,0,0,1-1.79,4.23l-.19.14c-.35.2-.65.1-.73-.26l-4.39-20.35a1.56,1.56,0,0,1,.57-1.36A3.86,3.86,0,0,1,433.16,425.53Z" transform="translate(0.18 -6.38)"/>
								<polygon class="cls-6" points="431.65 434.91 431.67 442.08 424.65 446.14 417.62 450.19 417.6 443.02 424.63 438.96 431.65 434.91"/>
								<path class="cls-13" d="M430.68,435.47c.43-.25.78,0,.78.45v2.69l-14,8.11v0l7-4.06v-3.59Z" transform="translate(0.18 -6.38)"/>
								<path class="cls-11" d="M424.44,442.66v2.69l-7,4.06,0,7.18,7-4.06v2.69l-9.36,5.4c-.43.25-.79,0-.79-.44l0-9a4.42,4.42,0,0,1,.43-1.8l0-.06,0,0a5.68,5.68,0,0,1,.74-1.16l.09-.11,0,0,.05-.06.06-.06,0,0,.07-.07.11-.1.11-.1.11-.09.11-.08.11-.08.05,0,.06,0,.11-.07Z" transform="translate(0.18 -6.38)"/>
								<path class="cls-12" d="M424.81,431.67c2.34-1.35,7.42-.24,5.09,4.25l-5.47,3.16,0-5.35A4,4,0,0,0,424.81,431.67Z" transform="translate(0.18 -6.38)"/>
								<path class="cls-12" d="M423.12,435.75c-1.68,2.09-4,4-4.47,5.39C419.07,439.74,421.44,437.84,423.12,435.75Z" transform="translate(0.18 -6.38)"/>
								<path class="cls-6" d="M424.42,433.71l0,5.36L419,442.23s-.39.22-.39-.68c0,0,0,0,0,0v-.35c.43-1.41,2.8-3.31,4.47-5.4A9.59,9.59,0,0,0,424.42,433.71Z" transform="translate(0.18 -6.38)"/>
								<path class="cls-14" d="M424.43,439.07v3.59l-7,4.06V444a1.72,1.72,0,0,1,.78-1.35Z" transform="translate(0.18 -6.38)"/>
							</g>
								<path class="cls-10" d="M415.52,448.14a5.68,5.68,0,0,0-.74,1.16A5.56,5.56,0,0,1,415.52,448.14Z" transform="translate(0.18 -6.38)"/>
						</g>
						<g id="phone_mask">
								<path class="cls-21" d="M398.72,396.31l51.2-29.56.3,107.42L399,503.73Zm44.92,51.35L443.55,417,405,439.24l.09,30.69,38.58-22.28m-.11-40.07v-3.41l-38.58,22.28v3.41l38.58-22.28m0-13.64v-3.41L404.9,412.81v3.41l38.58-22.28m.06,20.46V411L405,433.27v3.41l38.58-22.28m-.08-27.28v-3.41L404.88,406v3.41l38.58-22.28m.21,73.75v-3.41l-38.58,22.28v3.41l38.58-22.28m0-6.82v-3.41l-38.59,22.28v3.41L443.66,454m-.15-53.29v-3.41l-38.58,22.28V423l38.58-22.28" transform="translate(0.18 -6.38)"/>
							<g id="line">
								<polygon class="cls-20" points="443.68 390.97 443.69 394.38 405.1 416.66 405.09 413.25 443.68 390.97"/>
							</g>
							<g id="line-2" data-name="line">
								<polygon class="cls-20" points="443.72 404.61 443.73 408.02 405.14 430.3 405.13 426.89 443.72 404.61"/>
							</g>
							<g id="line-3" data-name="line">
								<polygon class="cls-20" points="443.69 397.79 443.71 401.2 405.12 423.48 405.11 420.07 443.69 397.79"/>
							</g>
							<g id="line-4" data-name="line">
								<polygon class="cls-20" points="443.64 377.33 443.65 380.74 405.06 403.02 405.05 399.61 443.64 377.33"/>
							</g>
							<g id="line-5" data-name="line">
								<polygon class="cls-20" points="443.66 384.15 443.67 387.56 405.08 409.84 405.07 406.43 443.66 384.15"/>
							</g>
							<g id="line-6" data-name="line">
								<polygon class="cls-20" points="443.83 444.25 443.84 447.67 405.25 469.94 405.24 466.53 443.83 444.25"/>
							</g>
							<g id="line-7" data-name="line">
								<polygon class="cls-20" points="443.85 451.08 443.86 454.49 405.27 476.76 405.26 473.35 443.85 451.08"/>
							</g>
						</g>
					</g>
				</g>
	</g>
		</svg>